0
SECTION
2
HEADER
9
$ACADVER
1
AC1027
9
$INSUNITS
70
4
9
$EXTMIN
10
-12
20
-49.057778
30
0
9
$EXTMAX
10
298
20
49.057778
30
0
0
ENDSEC
0
SECTION
2
TABLES
0
TABLE
2
LTYPE
70
3
0
LTYPE
100
AcDbSymbolTableRecord
100
AcDbLinetypeTableRecord
2
CONTINUOUS
70
0
3
Solid line
72
65
73
0
40
0
0
LTYPE
100
AcDbSymbolTableRecord
100
AcDbLinetypeTableRecord
2
CENTER2
70
0
3
Center line
72
65
73
4
40
1.375
49
0.75
74
0
49
-0.25
74
0
49
0.125
74
0
49
-0.25
74
0
0
LTYPE
100
AcDbSymbolTableRecord
100
AcDbLinetypeTableRecord
2
DASHED2
70
0
3
Dashed line
72
65
73
2
40
0.75
49
0.5
74
0
49
-0.25
74
0
0
ENDTAB
0
TABLE
2
LAYER
70
10
0
LAYER
100
AcDbSymbolTableRecord
100
AcDbLayerTableRecord
2
0
70
0
62
7
6
CONTINUOUS
370
25
0
LAYER
100
AcDbSymbolTableRecord
100
AcDbLayerTableRecord
2
PROFILE-OUTER
70
0
62
7
6
CONTINUOUS
370
50
0
LAYER
100
AcDbSymbolTableRecord
100
AcDbLayerTableRecord
2
PROFILE-BORE
70
0
62
7
6
CONTINUOUS
370
50
0
LAYER
100
AcDbSymbolTableRecord
100
AcDbLayerTableRecord
2
DETAIL-GEAR
70
0
62
7
6
CONTINUOUS
370
50
0
LAYER
100
AcDbSymbolTableRecord
100
AcDbLayerTableRecord
2
DETAIL-GEAR-VISIBLE
70
0
62
7
6
CONTINUOUS
370
25
0
LAYER
100
AcDbSymbolTableRecord
100
AcDbLayerTableRecord
2
DETAIL-THREAD
70
0
62
7
6
CONTINUOUS
370
18
0
LAYER
100
AcDbSymbolTableRecord
100
AcDbLayerTableRecord
2
DETAIL-THREAD-LIMIT
70
0
62
7
6
CONTINUOUS
370
50
0
LAYER
100
AcDbSymbolTableRecord
100
AcDbLayerTableRecord
2
DETAIL-RELIEF
70
0
62
8
6
CONTINUOUS
370
50
0
LAYER
100
AcDbSymbolTableRecord
100
AcDbLayerTableRecord
2
CENTERLINE
70
0
62
4
6
CENTER2
370
18
0
LAYER
100
AcDbSymbolTableRecord
100
AcDbLayerTableRecord
2
SECTION-HATCH
70
0
62
2
6
CONTINUOUS
370
13
0
ENDTAB
0
ENDSEC
0
SECTION
2
ENTITIES
0
LINE
5
0001
100
AcDbEntity
8
PROFILE-OUTER
100
AcDbLine
10
0
20
25.5
30
0
11
2
21
27.5
31
0
0
LINE
5
0001
100
AcDbEntity
8
PROFILE-OUTER
100
AcDbLine
10
2
20
27.5
30
0
11
20
21
27.5
31
0
0
LINE
5
0001
100
AcDbEntity
8
DETAIL-RELIEF
100
AcDbLine
10
20
20
27.5
30
0
11
22
21
25
31
0
0
LINE
5
0001
100
AcDbEntity
8
DETAIL-RELIEF
100
AcDbLine
10
22
20
25
30
0
11
30
21
25
31
0
0
LINE
5
0001
100
AcDbEntity
8
PROFILE-OUTER
100
AcDbLine
10
30
20
25
30
0
11
31
21
26
31
0
0
LINE
5
0001
100
AcDbEntity
8
PROFILE-OUTER
100
AcDbLine
10
31
20
26
30
0
11
31
21
30
31
0
0
LINE
5
0001
100
AcDbEntity
8
PROFILE-OUTER
100
AcDbLine
10
31
20
30
30
0
11
61
21
30
31
0
0
ARC
5
0001
100
AcDbEntity
8
DETAIL-RELIEF
100
AcDbCircle
10
61
20
31
30
0
40
1
100
AcDbArc
50
-90
51
0
0
LINE
5
0001
100
AcDbEntity
8
PROFILE-OUTER
100
AcDbLine
10
62
20
31
30
0
11
62
21
33
31
0
0
LINE
5
0001
100
AcDbEntity
8
PROFILE-OUTER
100
AcDbLine
10
62
20
33
30
0
11
81
21
33
31
0
0
LINE
5
0001
100
AcDbEntity
8
PROFILE-OUTER
100
AcDbLine
10
81
20
33
30
0
11
81
21
38
31
0
0
LINE
5
0001
100
AcDbEntity
8
PROFILE-OUTER
100
AcDbLine
10
81
20
38
30
0
11
115
21
38
31
0
0
LINE
5
0001
100
AcDbEntity
8
PROFILE-OUTER
100
AcDbLine
10
115
20
38
30
0
11
115
21
36
31
0
0
LINE
5
0001
100
AcDbEntity
8
PROFILE-OUTER
100
AcDbLine
10
115
20
36
30
0
11
132
21
36
31
0
0
ARC
5
0001
100
AcDbEntity
8
DETAIL-RELIEF
100
AcDbCircle
10
132
20
40
30
0
40
4
100
AcDbArc
50
-90
51
0
0
LINE
5
0001
100
AcDbEntity
8
PROFILE-OUTER
100
AcDbLine
10
136
20
40
30
0
11
138
21
40
31
0
0
LINE
5
0001
100
AcDbEntity
8
PROFILE-OUTER
100
AcDbLine
10
138
20
40
30
0
11
138
21
48.857778
31
0
0
SPLINE
5
0001
100
AcDbEntity
8
DETAIL-GEAR
100
AcDbSpline
70
0
71
3
72
8
73
4
74
0
42
0.0000001
43
0.0000001
44
0.0000000001
40
0
40
0
40
0
40
0
40
1
40
1
40
1
40
1
10
138
20
48.857778
30
0
10
141.827251
20
48.857778
30
0
10
145.654502
20
43.432778
30
0
10
149.481753
20
43.432778
30
0
0
SPLINE
5
0001
100
AcDbEntity
8
DETAIL-GEAR
100
AcDbSpline
70
0
71
3
72
8
73
4
74
0
42
0.0000001
43
0.0000001
44
0.0000000001
40
0
40
0
40
0
40
0
40
1
40
1
40
1
40
1
10
149.481753
20
43.432778
30
0
10
153.309004
20
43.432778
30
0
10
157.136255
20
48.857778
30
0
10
160.963506
20
48.857778
30
0
0
SPLINE
5
0001
100
AcDbEntity
8
DETAIL-GEAR
100
AcDbSpline
70
0
71
3
72
8
73
4
74
0
42
0.0000001
43
0.0000001
44
0.0000000001
40
0
40
0
40
0
40
0
40
1
40
1
40
1
40
1
10
160.963506
20
48.857778
30
0
10
164.790757
20
48.857778
30
0
10
168.618008
20
43.432778
30
0
10
172.445259
20
43.432778
30
0
0
SPLINE
5
0001
100
AcDbEntity
8
DETAIL-GEAR
100
AcDbSpline
70
0
71
3
72
8
73
4
74
0
42
0.0000001
43
0.0000001
44
0.0000000001
40
0
40
0
40
0
40
0
40
1
40
1
40
1
40
1
10
172.445259
20
43.432778
30
0
10
176.27251
20
43.432778
30
0
10
180.099761
20
48.857778
30
0
10
183.927012
20
48.857778
30
0
0
SPLINE
5
0001
100
AcDbEntity
8
DETAIL-GEAR
100
AcDbSpline
70
0
71
3
72
8
73
4
74
0
42
0.0000001
43
0.0000001
44
0.0000000001
40
0
40
0
40
0
40
0
40
1
40
1
40
1
40
1
10
183.927012
20
48.857778
30
0
10
187.754263
20
48.857778
30
0
10
191.581514
20
43.432778
30
0
10
195.408765
20
43.432778
30
0
0
SPLINE
5
0001
100
AcDbEntity
8
DETAIL-GEAR
100
AcDbSpline
70
0
71
3
72
8
73
4
74
0
42
0.0000001
43
0.0000001
44
0.0000000001
40
0
40
0
40
0
40
0
40
1
40
1
40
1
40
1
10
195.408765
20
43.432778
30
0
10
196.27251
20
43.432778
30
0
10
197.136255
20
43.709088
30
0
10
198
20
44.136991
30
0
0
LINE
5
0001
100
AcDbEntity
8
DETAIL-RELIEF
100
AcDbLine
10
198
20
44.136991
30
0
11
198
21
42.25
31
0
0
ARC
5
0001
100
AcDbEntity
8
DETAIL-RELIEF
100
AcDbCircle
10
198.5
20
42.25
30
0
40
0.5
100
AcDbArc
50
180
51
-90
0
LINE
5
0001
100
AcDbEntity
8
DETAIL-RELIEF
100
AcDbLine
10
198.5
20
41.75
30
0
11
200.5
21
41.75
31
0
0
ARC
5
0001
100
AcDbEntity
8
DETAIL-RELIEF
100
AcDbCircle
10
200.5
20
42.25
30
0
40
0.5
100
AcDbArc
50
-90
51
0
0
LINE
5
0001
100
AcDbEntity
8
DETAIL-RELIEF
100
AcDbLine
10
201
20
42.25
30
0
11
201
21
44.25
31
0
0
LINE
5
0001
100
AcDbEntity
8
PROFILE-OUTER
100
AcDbLine
10
201
20
44.25
30
0
11
207
21
44.25
31
0
0
LINE
5
0001
100
AcDbEntity
8
DETAIL-RELIEF
100
AcDbLine
10
207
20
44.25
30
0
11
207
21
30
31
0
0
LINE
5
0001
100
AcDbEntity
8
DETAIL-RELIEF
100
AcDbLine
10
207
20
30
30
0
11
208
21
30
31
0
0
LINE
5
0001
100
AcDbEntity
8
DETAIL-RELIEF
100
AcDbLine
10
208
20
30
30
0
11
208
21
32
31
0
0
LINE
5
0001
100
AcDbEntity
8
PROFILE-OUTER
100
AcDbLine
10
208
20
32
30
0
11
244
21
32
31
0
0
LINE
5
0001
100
AcDbEntity
8
PROFILE-OUTER
100
AcDbLine
10
244
20
32
30
0
11
244
21
30
31
0
0
LINE
5
0001
100
AcDbEntity
8
DETAIL-RELIEF
100
AcDbLine
10
244
20
30
30
0
11
245
21
29
31
0
0
LINE
5
0001
100
AcDbEntity
8
PROFILE-OUTER
100
AcDbLine
10
245
20
29
30
0
11
270
21
29
31
0
0
LINE
5
0001
100
AcDbEntity
8
PROFILE-OUTER
100
AcDbLine
10
270
20
29
30
0
11
270
21
22.5
31
0
0
LINE
5
0001
100
AcDbEntity
8
PROFILE-OUTER
100
AcDbLine
10
270
20
22.5
30
0
11
284.5
21
22.5
31
0
0
LINE
5
0001
100
AcDbEntity
8
PROFILE-OUTER
100
AcDbLine
10
284.5
20
22.5
30
0
11
286
21
21
31
0
0
LINE
5
0001
100
AcDbEntity
8
PROFILE-OUTER
100
AcDbLine
10
0
20
-25.5
30
0
11
2
21
-27.5
31
0
0
LINE
5
0001
100
AcDbEntity
8
PROFILE-OUTER
100
AcDbLine
10
2
20
-27.5
30
0
11
20
21
-27.5
31
0
0
LINE
5
0001
100
AcDbEntity
8
DETAIL-RELIEF
100
AcDbLine
10
20
20
-27.5
30
0
11
22
21
-25
31
0
0
LINE
5
0001
100
AcDbEntity
8
DETAIL-RELIEF
100
AcDbLine
10
22
20
-25
30
0
11
30
21
-25
31
0
0
LINE
5
0001
100
AcDbEntity
8
PROFILE-OUTER
100
AcDbLine
10
30
20
-25
30
0
11
31
21
-26
31
0
0
LINE
5
0001
100
AcDbEntity
8
PROFILE-OUTER
100
AcDbLine
10
31
20
-26
30
0
11
31
21
-30
31
0
0
LINE
5
0001
100
AcDbEntity
8
PROFILE-OUTER
100
AcDbLine
10
31
20
-30
30
0
11
61
21
-30
31
0
0
ARC
5
0001
100
AcDbEntity
8
DETAIL-RELIEF
100
AcDbCircle
10
61
20
-31
30
0
40
1
100
AcDbArc
50
0
51
90
0
LINE
5
0001
100
AcDbEntity
8
PROFILE-OUTER
100
AcDbLine
10
62
20
-31
30
0
11
62
21
-33
31
0
0
LINE
5
0001
100
AcDbEntity
8
PROFILE-OUTER
100
AcDbLine
10
62
20
-33
30
0
11
81
21
-33
31
0
0
LINE
5
0001
100
AcDbEntity
8
PROFILE-OUTER
100
AcDbLine
10
81
20
-33
30
0
11
81
21
-38
31
0
0
LINE
5
0001
100
AcDbEntity
8
PROFILE-OUTER
100
AcDbLine
10
81
20
-38
30
0
11
115
21
-38
31
0
0
LINE
5
0001
100
AcDbEntity
8
PROFILE-OUTER
100
AcDbLine
10
115
20
-38
30
0
11
115
21
-36
31
0
0
LINE
5
0001
100
AcDbEntity
8
PROFILE-OUTER
100
AcDbLine
10
115
20
-36
30
0
11
132
21
-36
31
0
0
ARC
5
0001
100
AcDbEntity
8
DETAIL-RELIEF
100
AcDbCircle
10
132
20
-40
30
0
40
4
100
AcDbArc
50
0
51
90
0
LINE
5
0001
100
AcDbEntity
8
PROFILE-OUTER
100
AcDbLine
10
136
20
-40
30
0
11
138
21
-40
31
0
0
LINE
5
0001
100
AcDbEntity
8
PROFILE-OUTER
100
AcDbLine
10
138
20
-40
30
0
11
138
21
-43.432778
31
0
0
SPLINE
5
0001
100
AcDbEntity
8
DETAIL-GEAR
100
AcDbSpline
70
0
71
3
72
8
73
4
74
0
42
0.0000001
43
0.0000001
44
0.0000000001
40
0
40
0
40
0
40
0
40
1
40
1
40
1
40
1
10
138
20
-43.432778
30
0
10
141.827251
20
-43.432778
30
0
10
145.654502
20
-48.857778
30
0
10
149.481753
20
-48.857778
30
0
0
SPLINE
5
0001
100
AcDbEntity
8
DETAIL-GEAR
100
AcDbSpline
70
0
71
3
72
8
73
4
74
0
42
0.0000001
43
0.0000001
44
0.0000000001
40
0
40
0
40
0
40
0
40
1
40
1
40
1
40
1
10
149.481753
20
-48.857778
30
0
10
153.309004
20
-48.857778
30
0
10
157.136255
20
-43.432778
30
0
10
160.963506
20
-43.432778
30
0
0
SPLINE
5
0001
100
AcDbEntity
8
DETAIL-GEAR
100
AcDbSpline
70
0
71
3
72
8
73
4
74
0
42
0.0000001
43
0.0000001
44
0.0000000001
40
0
40
0
40
0
40
0
40
1
40
1
40
1
40
1
10
160.963506
20
-43.432778
30
0
10
164.790757
20
-43.432778
30
0
10
168.618008
20
-48.857778
30
0
10
172.445259
20
-48.857778
30
0
0
SPLINE
5
0001
100
AcDbEntity
8
DETAIL-GEAR
100
AcDbSpline
70
0
71
3
72
8
73
4
74
0
42
0.0000001
43
0.0000001
44
0.0000000001
40
0
40
0
40
0
40
0
40
1
40
1
40
1
40
1
10
172.445259
20
-48.857778
30
0
10
176.27251
20
-48.857778
30
0
10
180.099761
20
-43.432778
30
0
10
183.927012
20
-43.432778
30
0
0
SPLINE
5
0001
100
AcDbEntity
8
DETAIL-GEAR
100
AcDbSpline
70
0
71
3
72
8
73
4
74
0
42
0.0000001
43
0.0000001
44
0.0000000001
40
0
40
0
40
0
40
0
40
1
40
1
40
1
40
1
10
183.927012
20
-43.432778
30
0
10
187.754263
20
-43.432778
30
0
10
191.581514
20
-48.857778
30
0
10
195.408765
20
-48.857778
30
0
0
SPLINE
5
0001
100
AcDbEntity
8
DETAIL-GEAR
100
AcDbSpline
70
0
71
3
72
8
73
4
74
0
42
0.0000001
43
0.0000001
44
0.0000000001
40
0
40
0
40
0
40
0
40
1
40
1
40
1
40
1
10
195.408765
20
-48.857778
30
0
10
196.27251
20
-48.857778
30
0
10
197.136255
20
-48.581467
30
0
10
198
20
-48.153564
30
0
0
LINE
5
0001
100
AcDbEntity
8
DETAIL-RELIEF
100
AcDbLine
10
198
20
-48.153564
30
0
11
198
21
-42.25
31
0
0
ARC
5
0001
100
AcDbEntity
8
DETAIL-RELIEF
100
AcDbCircle
10
198.5
20
-42.25
30
0
40
0.5
100
AcDbArc
50
90
51
180
0
LINE
5
0001
100
AcDbEntity
8
DETAIL-RELIEF
100
AcDbLine
10
198.5
20
-41.75
30
0
11
200.5
21
-41.75
31
0
0
ARC
5
0001
100
AcDbEntity
8
DETAIL-RELIEF
100
AcDbCircle
10
200.5
20
-42.25
30
0
40
0.5
100
AcDbArc
50
0
51
90
0
LINE
5
0001
100
AcDbEntity
8
DETAIL-RELIEF
100
AcDbLine
10
201
20
-42.25
30
0
11
201
21
-44.25
31
0
0
LINE
5
0001
100
AcDbEntity
8
PROFILE-OUTER
100
AcDbLine
10
201
20
-44.25
30
0
11
207
21
-44.25
31
0
0
LINE
5
0001
100
AcDbEntity
8
DETAIL-RELIEF
100
AcDbLine
10
207
20
-44.25
30
0
11
207
21
-30
31
0
0
LINE
5
0001
100
AcDbEntity
8
DETAIL-RELIEF
100
AcDbLine
10
207
20
-30
30
0
11
208
21
-30
31
0
0
LINE
5
0001
100
AcDbEntity
8
DETAIL-RELIEF
100
AcDbLine
10
208
20
-30
30
0
11
208
21
-32
31
0
0
LINE
5
0001
100
AcDbEntity
8
PROFILE-OUTER
100
AcDbLine
10
208
20
-32
30
0
11
244
21
-32
31
0
0
LINE
5
0001
100
AcDbEntity
8
PROFILE-OUTER
100
AcDbLine
10
244
20
-32
30
0
11
244
21
-30
31
0
0
LINE
5
0001
100
AcDbEntity
8
DETAIL-RELIEF
100
AcDbLine
10
244
20
-30
30
0
11
245
21
-29
31
0
0
LINE
5
0001
100
AcDbEntity
8
PROFILE-OUTER
100
AcDbLine
10
245
20
-29
30
0
11
270
21
-29
31
0
0
LINE
5
0001
100
AcDbEntity
8
PROFILE-OUTER
100
AcDbLine
10
270
20
-29
30
0
11
270
21
-22.5
31
0
0
LINE
5
0001
100
AcDbEntity
8
PROFILE-OUTER
100
AcDbLine
10
270
20
-22.5
30
0
11
284.5
21
-22.5
31
0
0
LINE
5
0001
100
AcDbEntity
8
PROFILE-OUTER
100
AcDbLine
10
284.5
20
-22.5
30
0
11
286
21
-21
31
0
0
SPLINE
5
0001
100
AcDbEntity
8
DETAIL-GEAR-VISIBLE
100
AcDbSpline
70
0
71
3
72
8
73
4
74
0
42
0.0000001
43
0.0000001
44
0.0000000001
40
0
40
0
40
0
40
0
40
1
40
1
40
1
40
1
10
138
20
48.857778
30
0
10
141.827251
20
48.857778
30
0
10
145.654502
20
49.057778
30
0
10
149.481753
20
49.057778
30
0
0
SPLINE
5
0001
100
AcDbEntity
8
DETAIL-GEAR-VISIBLE
100
AcDbSpline
70
0
71
3
72
8
73
4
74
0
42
0.0000001
43
0.0000001
44
0.0000000001
40
0
40
0
40
0
40
0
40
1
40
1
40
1
40
1
10
149.481753
20
49.057778
30
0
10
153.309004
20
49.057778
30
0
10
157.136255
20
48.857778
30
0
10
160.963506
20
48.857778
30
0
0
SPLINE
5
0001
100
AcDbEntity
8
DETAIL-GEAR-VISIBLE
100
AcDbSpline
70
0
71
3
72
8
73
4
74
0
42
0.0000001
43
0.0000001
44
0.0000000001
40
0
40
0
40
0
40
0
40
1
40
1
40
1
40
1
10
160.963506
20
48.857778
30
0
10
164.790757
20
48.857778
30
0
10
168.618008
20
49.057778
30
0
10
172.445259
20
49.057778
30
0
0
SPLINE
5
0001
100
AcDbEntity
8
DETAIL-GEAR-VISIBLE
100
AcDbSpline
70
0
71
3
72
8
73
4
74
0
42
0.0000001
43
0.0000001
44
0.0000000001
40
0
40
0
40
0
40
0
40
1
40
1
40
1
40
1
10
172.445259
20
49.057778
30
0
10
176.27251
20
49.057778
30
0
10
180.099761
20
48.857778
30
0
10
183.927012
20
48.857778
30
0
0
SPLINE
5
0001
100
AcDbEntity
8
DETAIL-GEAR-VISIBLE
100
AcDbSpline
70
0
71
3
72
8
73
4
74
0
42
0.0000001
43
0.0000001
44
0.0000000001
40
0
40
0
40
0
40
0
40
1
40
1
40
1
40
1
10
183.927012
20
48.857778
30
0
10
187.754263
20
48.857778
30
0
10
191.581514
20
49.057778
30
0
10
195.408765
20
49.057778
30
0
0
SPLINE
5
0001
100
AcDbEntity
8
DETAIL-GEAR-VISIBLE
100
AcDbSpline
70
0
71
3
72
8
73
4
74
0
42
0.0000001
43
0.0000001
44
0.0000000001
40
0
40
0
40
0
40
0
40
1
40
1
40
1
40
1
10
195.408765
20
49.057778
30
0
10
196.27251
20
49.057778
30
0
10
197.136255
20
49.047591
30
0
10
198
20
49.031816
30
0
0
SPLINE
5
0001
100
AcDbEntity
8
DETAIL-GEAR-VISIBLE
100
AcDbSpline
70
0
71
3
72
8
73
4
74
0
42
0.0000001
43
0.0000001
44
0.0000000001
40
0
40
0
40
0
40
0
40
1
40
1
40
1
40
1
10
138
20
-49.057778
30
0
10
141.827251
20
-49.057778
30
0
10
145.654502
20
-48.857778
30
0
10
149.481753
20
-48.857778
30
0
0
SPLINE
5
0001
100
AcDbEntity
8
DETAIL-GEAR-VISIBLE
100
AcDbSpline
70
0
71
3
72
8
73
4
74
0
42
0.0000001
43
0.0000001
44
0.0000000001
40
0
40
0
40
0
40
0
40
1
40
1
40
1
40
1
10
149.481753
20
-48.857778
30
0
10
153.309004
20
-48.857778
30
0
10
157.136255
20
-49.057778
30
0
10
160.963506
20
-49.057778
30
0
0
SPLINE
5
0001
100
AcDbEntity
8
DETAIL-GEAR-VISIBLE
100
AcDbSpline
70
0
71
3
72
8
73
4
74
0
42
0.0000001
43
0.0000001
44
0.0000000001
40
0
40
0
40
0
40
0
40
1
40
1
40
1
40
1
10
160.963506
20
-49.057778
30
0
10
164.790757
20
-49.057778
30
0
10
168.618008
20
-48.857778
30
0
10
172.445259
20
-48.857778
30
0
0
SPLINE
5
0001
100
AcDbEntity
8
DETAIL-GEAR-VISIBLE
100
AcDbSpline
70
0
71
3
72
8
73
4
74
0
42
0.0000001
43
0.0000001
44
0.0000000001
40
0
40
0
40
0
40
0
40
1
40
1
40
1
40
1
10
172.445259
20
-48.857778
30
0
10
176.27251
20
-48.857778
30
0
10
180.099761
20
-49.057778
30
0
10
183.927012
20
-49.057778
30
0
0
SPLINE
5
0001
100
AcDbEntity
8
DETAIL-GEAR-VISIBLE
100
AcDbSpline
70
0
71
3
72
8
73
4
74
0
42
0.0000001
43
0.0000001
44
0.0000000001
40
0
40
0
40
0
40
0
40
1
40
1
40
1
40
1
10
183.927012
20
-49.057778
30
0
10
187.754263
20
-49.057778
30
0
10
191.581514
20
-48.857778
30
0
10
195.408765
20
-48.857778
30
0
0
SPLINE
5
0001
100
AcDbEntity
8
DETAIL-GEAR-VISIBLE
100
AcDbSpline
70
0
71
3
72
8
73
4
74
0
42
0.0000001
43
0.0000001
44
0.0000000001
40
0
40
0
40
0
40
0
40
1
40
1
40
1
40
1
10
195.408765
20
-48.857778
30
0
10
196.27251
20
-48.857778
30
0
10
197.136255
20
-48.867964
30
0
10
198
20
-48.883739
30
0
0
LINE
5
0001
100
AcDbEntity
8
DETAIL-GEAR-VISIBLE
100
AcDbLine
10
198
20
49.031816
30
0
11
198
21
44.136991
31
0
0
LINE
5
0001
100
AcDbEntity
8
DETAIL-GEAR-VISIBLE
100
AcDbLine
10
138
20
-49.057778
30
0
11
138
21
-43.432778
31
0
0
LINE
5
0001
100
AcDbEntity
8
DETAIL-GEAR-VISIBLE
100
AcDbLine
10
198
20
-48.883739
30
0
11
198
21
-48.153564
31
0
0
LINE
5
0001
100
AcDbEntity
8
PROFILE-BORE
100
AcDbLine
10
0
20
15
30
0
11
5.196152
21
12
31
0
0
LINE
5
0001
100
AcDbEntity
8
PROFILE-BORE
100
AcDbLine
10
5.196152
20
12
30
0
11
22
21
12
31
0
0
LINE
5
0001
100
AcDbEntity
8
PROFILE-BORE
100
AcDbLine
10
22
20
12
30
0
11
22
21
16
31
0
0
LINE
5
0001
100
AcDbEntity
8
PROFILE-BORE
100
AcDbLine
10
22
20
16
30
0
11
58
21
16
31
0
0
LINE
5
0001
100
AcDbEntity
8
PROFILE-BORE
100
AcDbLine
10
58
20
16
30
0
11
58
21
12
31
0
0
LINE
5
0001
100
AcDbEntity
8
PROFILE-BORE
100
AcDbLine
10
58
20
12
30
0
11
70
21
12
31
0
0
LINE
5
0001
100
AcDbEntity
8
PROFILE-BORE
100
AcDbLine
10
70
20
12
30
0
11
74
21
10
31
0
0
LINE
5
0001
100
AcDbEntity
8
PROFILE-BORE
100
AcDbLine
10
74
20
10
30
0
11
132
21
10
31
0
0
LINE
5
0001
100
AcDbEntity
8
PROFILE-BORE
100
AcDbLine
10
132
20
10
30
0
11
136
21
13
31
0
0
LINE
5
0001
100
AcDbEntity
8
PROFILE-BORE
100
AcDbLine
10
136
20
13
30
0
11
174
21
13
31
0
0
LINE
5
0001
100
AcDbEntity
8
PROFILE-BORE
100
AcDbLine
10
174
20
13
30
0
11
178
21
10
31
0
0
LINE
5
0001
100
AcDbEntity
8
PROFILE-BORE
100
AcDbLine
10
178
20
10
30
0
11
232
21
10
31
0
0
LINE
5
0001
100
AcDbEntity
8
PROFILE-BORE
100
AcDbLine
10
232
20
10
30
0
11
236
21
13
31
0
0
LINE
5
0001
100
AcDbEntity
8
PROFILE-BORE
100
AcDbLine
10
236
20
13
30
0
11
270
21
13
31
0
0
LINE
5
0001
100
AcDbEntity
8
PROFILE-BORE
100
AcDbLine
10
270
20
13
30
0
11
274
21
16
31
0
0
LINE
5
0001
100
AcDbEntity
8
PROFILE-BORE
100
AcDbLine
10
274
20
16
30
0
11
286
21
16
31
0
0
LINE
5
0001
100
AcDbEntity
8
PROFILE-BORE
100
AcDbLine
10
0
20
-15
30
0
11
5.196152
21
-12
31
0
0
LINE
5
0001
100
AcDbEntity
8
PROFILE-BORE
100
AcDbLine
10
5.196152
20
-12
30
0
11
22
21
-12
31
0
0
LINE
5
0001
100
AcDbEntity
8
PROFILE-BORE
100
AcDbLine
10
22
20
-12
30
0
11
22
21
-16
31
0
0
LINE
5
0001
100
AcDbEntity
8
PROFILE-BORE
100
AcDbLine
10
22
20
-16
30
0
11
58
21
-16
31
0
0
LINE
5
0001
100
AcDbEntity
8
PROFILE-BORE
100
AcDbLine
10
58
20
-16
30
0
11
58
21
-12
31
0
0
LINE
5
0001
100
AcDbEntity
8
PROFILE-BORE
100
AcDbLine
10
58
20
-12
30
0
11
70
21
-12
31
0
0
LINE
5
0001
100
AcDbEntity
8
PROFILE-BORE
100
AcDbLine
10
70
20
-12
30
0
11
74
21
-10
31
0
0
LINE
5
0001
100
AcDbEntity
8
PROFILE-BORE
100
AcDbLine
10
74
20
-10
30
0
11
132
21
-10
31
0
0
LINE
5
0001
100
AcDbEntity
8
PROFILE-BORE
100
AcDbLine
10
132
20
-10
30
0
11
136
21
-13
31
0
0
LINE
5
0001
100
AcDbEntity
8
PROFILE-BORE
100
AcDbLine
10
136
20
-13
30
0
11
174
21
-13
31
0
0
LINE
5
0001
100
AcDbEntity
8
PROFILE-BORE
100
AcDbLine
10
174
20
-13
30
0
11
178
21
-10
31
0
0
LINE
5
0001
100
AcDbEntity
8
PROFILE-BORE
100
AcDbLine
10
178
20
-10
30
0
11
232
21
-10
31
0
0
LINE
5
0001
100
AcDbEntity
8
PROFILE-BORE
100
AcDbLine
10
232
20
-10
30
0
11
236
21
-13
31
0
0
LINE
5
0001
100
AcDbEntity
8
PROFILE-BORE
100
AcDbLine
10
236
20
-13
30
0
11
270
21
-13
31
0
0
LINE
5
0001
100
AcDbEntity
8
PROFILE-BORE
100
AcDbLine
10
270
20
-13
30
0
11
274
21
-16
31
0
0
LINE
5
0001
100
AcDbEntity
8
PROFILE-BORE
100
AcDbLine
10
274
20
-16
30
0
11
286
21
-16
31
0
0
LINE
5
0001
100
AcDbEntity
8
PROFILE-BORE
100
AcDbLine
10
0
20
15
30
0
11
0
21
25.5
31
0
0
LINE
5
0001
100
AcDbEntity
8
PROFILE-BORE
100
AcDbLine
10
0
20
-15
30
0
11
0
21
-25.5
31
0
0
LINE
5
0001
100
AcDbEntity
8
PROFILE-BORE
100
AcDbLine
10
286
20
16
30
0
11
286
21
21
31
0
0
LINE
5
0001
100
AcDbEntity
8
PROFILE-BORE
100
AcDbLine
10
286
20
-16
30
0
11
286
21
-21
31
0
0
LINE
5
0001
100
AcDbEntity
8
CENTERLINE
6
CENTER2
100
AcDbLine
10
-12
20
0
30
0
11
298
21
0
31
0
0
LINE
5
0001
100
AcDbEntity
8
DETAIL-THREAD
100
AcDbLine
10
0.773131
20
26.273131
30
0
11
19
21
26.273131
31
0
0
LINE
5
0001
100
AcDbEntity
8
DETAIL-THREAD
100
AcDbLine
10
0.773131
20
-26.273131
30
0
11
19
21
-26.273131
31
0
0
LINE
5
0001
100
AcDbEntity
8
DETAIL-THREAD-LIMIT
100
AcDbLine
10
19
20
26.273131
30
0
11
19
21
27.5
31
0
0
LINE
5
0001
100
AcDbEntity
8
DETAIL-THREAD-LIMIT
100
AcDbLine
10
19
20
-26.273131
30
0
11
19
21
-27.5
31
0
0
LINE
5
0001
100
AcDbEntity
8
DETAIL-THREAD
100
AcDbLine
10
271.5
20
21.579848
30
0
11
285.420152
21
21.579848
31
0
0
LINE
5
0001
100
AcDbEntity
8
DETAIL-THREAD
100
AcDbLine
10
271.5
20
-21.579848
30
0
11
285.420152
21
-21.579848
31
0
0
LINE
5
0001
100
AcDbEntity
8
DETAIL-THREAD-LIMIT
100
AcDbLine
10
271.5
20
21.579848
30
0
11
271.5
21
22.5
31
0
0
LINE
5
0001
100
AcDbEntity
8
DETAIL-THREAD-LIMIT
100
AcDbLine
10
271.5
20
-21.579848
30
0
11
271.5
21
-22.5
31
0
0
HATCH
5
0001
100
AcDbEntity
8
SECTION-HATCH
100
AcDbHatch
10
0
20
0
30
0
210
0
220
0
230
1
2
ANSI31
70
0
71
0
91
1
92
3
72
0
73
1
93
147
10
0
20
25.5
10
2
20
27.5
10
20
20
27.5
10
22
20
25
10
30
20
25
10
31
20
26
10
31
20
30
10
61
20
30
10
61.156434
20
30.012312
10
61.309017
20
30.048943
10
61.45399
20
30.108993
10
61.587785
20
30.190983
10
61.707107
20
30.292893
10
61.809017
20
30.412215
10
61.891007
20
30.54601
10
61.951057
20
30.690983
10
61.987688
20
30.843566
10
62
20
31
10
62
20
33
10
81
20
33
10
81
20
38
10
115
20
38
10
115
20
36
10
132
20
36
10
132.625738
20
36.049247
10
133.236068
20
36.195774
10
133.815962
20
36.435974
10
134.351141
20
36.763932
10
134.828427
20
37.171573
10
135.236068
20
37.648859
10
135.564026
20
38.184038
10
135.804226
20
38.763932
10
135.950753
20
39.374262
10
136
20
40
10
138
20
40
10
138
20
48.857778
10
139.148175
20
48.705878
10
140.296351
20
48.293578
10
141.444526
20
47.685978
10
142.592701
20
46.948178
10
143.740877
20
46.145278
10
144.889052
20
45.342378
10
146.037227
20
44.604578
10
147.185402
20
43.996978
10
148.333578
20
43.584678
10
149.481753
20
43.432778
10
150.629928
20
43.584678
10
151.778104
20
43.996978
10
152.926279
20
44.604578
10
154.074454
20
45.342378
10
155.22263
20
46.145278
10
156.370805
20
46.948178
10
157.51898
20
47.685978
10
158.667155
20
48.293578
10
159.815331
20
48.705878
10
160.963506
20
48.857778
10
162.111681
20
48.705878
10
163.259857
20
48.293578
10
164.408032
20
47.685978
10
165.556207
20
46.948178
10
166.704383
20
46.145278
10
167.852558
20
45.342378
10
169.000733
20
44.604578
10
170.148908
20
43.996978
10
171.297084
20
43.584678
10
172.445259
20
43.432778
10
173.593434
20
43.584678
10
174.74161
20
43.996978
10
175.889785
20
44.604578
10
177.03796
20
45.342378
10
178.186136
20
46.145278
10
179.334311
20
46.948178
10
180.482486
20
47.685978
10
181.630662
20
48.293578
10
182.778837
20
48.705878
10
183.927012
20
48.857778
10
185.075187
20
48.705878
10
186.223363
20
48.293578
10
187.371538
20
47.685978
10
188.519713
20
46.948178
10
189.667889
20
46.145278
10
190.816064
20
45.342378
10
191.964239
20
44.604578
10
193.112415
20
43.996978
10
194.26059
20
43.584678
10
195.408765
20
43.432778
10
195.667889
20
43.440942
10
195.927012
20
43.464937
10
196.186136
20
43.504014
10
196.445259
20
43.557425
10
196.704383
20
43.624421
10
196.963506
20
43.704254
10
197.22263
20
43.796176
10
197.481753
20
43.899438
10
197.740877
20
44.013293
10
198
20
44.136991
10
198
20
42.25
10
198.006156
20
42.171783
10
198.024472
20
42.095492
10
198.054497
20
42.023005
10
198.095492
20
41.956107
10
198.146447
20
41.896447
10
198.206107
20
41.845492
10
198.273005
20
41.804497
10
198.345492
20
41.774472
10
198.421783
20
41.756156
10
198.5
20
41.75
10
200.5
20
41.75
10
200.578217
20
41.756156
10
200.654508
20
41.774472
10
200.726995
20
41.804497
10
200.793893
20
41.845492
10
200.853553
20
41.896447
10
200.904508
20
41.956107
10
200.945503
20
42.023005
10
200.975528
20
42.095492
10
200.993844
20
42.171783
10
201
20
42.25
10
201
20
44.25
10
207
20
44.25
10
207
20
30
10
208
20
30
10
208
20
32
10
244
20
32
10
244
20
30
10
245
20
29
10
270
20
29
10
270
20
22.5
10
284.5
20
22.5
10
286
20
21
10
286
20
16
10
274
20
16
10
270
20
13
10
236
20
13
10
232
20
10
10
178
20
10
10
174
20
13
10
136
20
13
10
132
20
10
10
74
20
10
10
70
20
12
10
58
20
12
10
58
20
16
10
22
20
16
10
22
20
12
10
5.196152
20
12
10
0
20
15
97
0
75
0
76
1
52
0
41
1
77
0
78
1
53
45
43
0
44
0
45
0
46
4
79
0
0
HATCH
5
0001
100
AcDbEntity
8
SECTION-HATCH
100
AcDbHatch
10
0
20
0
30
0
210
0
220
0
230
1
2
ANSI31
70
0
71
0
91
1
92
3
72
0
73
1
93
147
10
0
20
-25.5
10
2
20
-27.5
10
20
20
-27.5
10
22
20
-25
10
30
20
-25
10
31
20
-26
10
31
20
-30
10
61
20
-30
10
61.156434
20
-30.012312
10
61.309017
20
-30.048943
10
61.45399
20
-30.108993
10
61.587785
20
-30.190983
10
61.707107
20
-30.292893
10
61.809017
20
-30.412215
10
61.891007
20
-30.54601
10
61.951057
20
-30.690983
10
61.987688
20
-30.843566
10
62
20
-31
10
62
20
-33
10
81
20
-33
10
81
20
-38
10
115
20
-38
10
115
20
-36
10
132
20
-36
10
132.625738
20
-36.049247
10
133.236068
20
-36.195774
10
133.815962
20
-36.435974
10
134.351141
20
-36.763932
10
134.828427
20
-37.171573
10
135.236068
20
-37.648859
10
135.564026
20
-38.184038
10
135.804226
20
-38.763932
10
135.950753
20
-39.374262
10
136
20
-40
10
138
20
-40
10
138
20
-43.432778
10
139.148175
20
-43.584678
10
140.296351
20
-43.996978
10
141.444526
20
-44.604578
10
142.592701
20
-45.342378
10
143.740877
20
-46.145278
10
144.889052
20
-46.948178
10
146.037227
20
-47.685978
10
147.185402
20
-48.293578
10
148.333578
20
-48.705878
10
149.481753
20
-48.857778
10
150.629928
20
-48.705878
10
151.778104
20
-48.293578
10
152.926279
20
-47.685978
10
154.074454
20
-46.948178
10
155.22263
20
-46.145278
10
156.370805
20
-45.342378
10
157.51898
20
-44.604578
10
158.667155
20
-43.996978
10
159.815331
20
-43.584678
10
160.963506
20
-43.432778
10
162.111681
20
-43.584678
10
163.259857
20
-43.996978
10
164.408032
20
-44.604578
10
165.556207
20
-45.342378
10
166.704383
20
-46.145278
10
167.852558
20
-46.948178
10
169.000733
20
-47.685978
10
170.148908
20
-48.293578
10
171.297084
20
-48.705878
10
172.445259
20
-48.857778
10
173.593434
20
-48.705878
10
174.74161
20
-48.293578
10
175.889785
20
-47.685978
10
177.03796
20
-46.948178
10
178.186136
20
-46.145278
10
179.334311
20
-45.342378
10
180.482486
20
-44.604578
10
181.630662
20
-43.996978
10
182.778837
20
-43.584678
10
183.927012
20
-43.432778
10
185.075187
20
-43.584678
10
186.223363
20
-43.996978
10
187.371538
20
-44.604578
10
188.519713
20
-45.342378
10
189.667889
20
-46.145278
10
190.816064
20
-46.948178
10
191.964239
20
-47.685978
10
193.112415
20
-48.293578
10
194.26059
20
-48.705878
10
195.408765
20
-48.857778
10
195.667889
20
-48.849613
10
195.927012
20
-48.825618
10
196.186136
20
-48.786541
10
196.445259
20
-48.733131
10
196.704383
20
-48.666135
10
196.963506
20
-48.586301
10
197.22263
20
-48.494379
10
197.481753
20
-48.391117
10
197.740877
20
-48.277262
10
198
20
-48.153564
10
198
20
-42.25
10
198.006156
20
-42.171783
10
198.024472
20
-42.095492
10
198.054497
20
-42.023005
10
198.095492
20
-41.956107
10
198.146447
20
-41.896447
10
198.206107
20
-41.845492
10
198.273005
20
-41.804497
10
198.345492
20
-41.774472
10
198.421783
20
-41.756156
10
198.5
20
-41.75
10
200.5
20
-41.75
10
200.578217
20
-41.756156
10
200.654508
20
-41.774472
10
200.726995
20
-41.804497
10
200.793893
20
-41.845492
10
200.853553
20
-41.896447
10
200.904508
20
-41.956107
10
200.945503
20
-42.023005
10
200.975528
20
-42.095492
10
200.993844
20
-42.171783
10
201
20
-42.25
10
201
20
-44.25
10
207
20
-44.25
10
207
20
-30
10
208
20
-30
10
208
20
-32
10
244
20
-32
10
244
20
-30
10
245
20
-29
10
270
20
-29
10
270
20
-22.5
10
284.5
20
-22.5
10
286
20
-21
10
286
20
-16
10
274
20
-16
10
270
20
-13
10
236
20
-13
10
232
20
-10
10
178
20
-10
10
174
20
-13
10
136
20
-13
10
132
20
-10
10
74
20
-10
10
70
20
-12
10
58
20
-12
10
58
20
-16
10
22
20
-16
10
22
20
-12
10
5.196152
20
-12
10
0
20
-15
97
0
75
0
76
1
52
0
41
1
77
0
78
1
53
45
43
0
44
0
45
0
46
4
79
0
0
ENDSEC
0
EOF
