0
SECTION
2
HEADER
9
$ACADVER
1
AC1027
9
$INSUNITS
70
4
0
ENDSEC
0
SECTION
2
ENTITIES
0
LINE
5
E001
8
OUTLINE
10
0
20
24
11
16
21
24
0
LINE
5
E002
8
OUTLINE
10
16
20
24
11
18
21
22
0
LINE
5
E003
8
OUTLINE
10
18
20
22
11
36
21
22
0
LINE
5
E004
8
OUTLINE
10
36
20
22
11
38
21
27
0
LINE
5
E005
8
OUTLINE
10
38
20
27
11
58
21
27
0
LINE
5
E006
8
OUTLINE
10
58
20
27
11
60
21
21
0
LINE
5
E007
8
OUTLINE
10
60
20
21
11
84
21
21
0
LINE
5
E008
8
OUTLINE
10
84
20
21
11
86
21
25
0
LINE
5
E009
8
OUTLINE
10
86
20
25
11
118
21
25
0
LINE
5
E010
8
OUTLINE
10
118
20
25
11
120
21
34
0
LINE
5
E011
8
OUTLINE
10
120
20
34
11
166
21
34
0
LINE
5
E012
8
OUTLINE
10
166
20
34
11
168
21
29
0
LINE
5
E013
8
OUTLINE
10
168
20
29
11
170
21
27
0
LINE
5
E014
8
OUTLINE
10
170
20
27
11
172
21
24
0
LINE
5
E015
8
OUTLINE
10
172
20
24
11
198
21
24
0
LINE
5
E016
8
OUTLINE
10
198
20
24
11
200
21
29
0
LINE
5
E017
8
OUTLINE
10
200
20
29
11
226
21
29
0
LINE
5
E018
8
OUTLINE
10
226
20
29
11
228
21
22
0
LINE
5
E019
8
OUTLINE
10
228
20
22
11
248
21
22
0
LINE
5
E020
8
OUTLINE
10
248
20
22
11
250
21
18
0
LINE
5
E021
8
OUTLINE
10
250
20
18
11
260
21
18
0
LINE
5
E022
8
OUTLINE
10
260
20
18
11
260
21
-18
0
LINE
5
E023
8
OUTLINE
10
260
20
-18
11
250
21
-18
0
LINE
5
E024
8
OUTLINE
10
250
20
-18
11
248
21
-22
0
LINE
5
E025
8
OUTLINE
10
248
20
-22
11
228
21
-22
0
LINE
5
E026
8
OUTLINE
10
228
20
-22
11
226
21
-29
0
LINE
5
E027
8
OUTLINE
10
226
20
-29
11
200
21
-29
0
LINE
5
E028
8
OUTLINE
10
200
20
-29
11
198
21
-24
0
LINE
5
E029
8
OUTLINE
10
198
20
-24
11
172
21
-24
0
LINE
5
E030
8
OUTLINE
10
172
20
-24
11
170
21
-27
0
LINE
5
E031
8
OUTLINE
10
170
20
-27
11
168
21
-29
0
LINE
5
E032
8
OUTLINE
10
168
20
-29
11
166
21
-34
0
LINE
5
E033
8
OUTLINE
10
166
20
-34
11
120
21
-34
0
LINE
5
E034
8
OUTLINE
10
120
20
-34
11
118
21
-25
0
LINE
5
E035
8
OUTLINE
10
118
20
-25
11
86
21
-25
0
LINE
5
E036
8
OUTLINE
10
86
20
-25
11
84
21
-21
0
LINE
5
E037
8
OUTLINE
10
84
20
-21
11
60
21
-21
0
LINE
5
E038
8
OUTLINE
10
60
20
-21
11
58
21
-27
0
LINE
5
E039
8
OUTLINE
10
58
20
-27
11
38
21
-27
0
LINE
5
E040
8
OUTLINE
10
38
20
-27
11
36
21
-22
0
LINE
5
E041
8
OUTLINE
10
36
20
-22
11
18
21
-22
0
LINE
5
E042
8
OUTLINE
10
18
20
-22
11
16
21
-24
0
LINE
5
E043
8
OUTLINE
10
16
20
-24
11
0
21
-24
0
LINE
5
E044
8
OUTLINE
10
0
20
-24
11
0
21
24
0
LINE
5
E045
8
CENTERLINE
10
0
20
0
11
260
21
0
0
LINE
5
E046
8
SECTION-HATCH
10
28
20
12
11
232
21
12
0
LINE
5
E047
8
SECTION-HATCH
10
28
20
-12
11
232
21
-12
0
LINE
5
E048
8
CONSTRUCTION-SPLINE
10
62
20
21
11
62
21
24
0
LINE
5
E049
8
CONSTRUCTION-SPLINE
10
62
20
-21
11
62
21
-24
0
LINE
5
E050
8
CONSTRUCTION-SPLINE
10
68
20
21
11
68
21
24
0
LINE
5
E051
8
CONSTRUCTION-SPLINE
10
68
20
-21
11
68
21
-24
0
LINE
5
E052
8
CONSTRUCTION-SPLINE
10
74
20
21
11
74
21
24
0
LINE
5
E053
8
CONSTRUCTION-SPLINE
10
74
20
-21
11
74
21
-24
0
LINE
5
E054
8
CONSTRUCTION-SPLINE
10
80
20
21
11
80
21
24
0
LINE
5
E055
8
CONSTRUCTION-SPLINE
10
80
20
-21
11
80
21
-24
0
LINE
5
E056
8
CONSTRUCTION-SPLINE
10
84
20
21
11
84
21
24
0
LINE
5
E057
8
CONSTRUCTION-SPLINE
10
84
20
-21
11
84
21
-24
0
LINE
5
E058
8
CONSTRUCTION-GEAR
10
124
20
34
11
124
21
38
0
LINE
5
E059
8
CONSTRUCTION-GEAR
10
124
20
38
11
128
21
38
0
LINE
5
E060
8
CONSTRUCTION-GEAR
10
128
20
38
11
128
21
34
0
LINE
5
E061
8
CONSTRUCTION-GEAR
10
124
20
-34
11
124
21
-38
0
LINE
5
E062
8
CONSTRUCTION-GEAR
10
124
20
-38
11
128
21
-38
0
LINE
5
E063
8
CONSTRUCTION-GEAR
10
128
20
-38
11
128
21
-34
0
LINE
5
E064
8
CONSTRUCTION-GEAR
10
138
20
34
11
138
21
38
0
LINE
5
E065
8
CONSTRUCTION-GEAR
10
138
20
38
11
142
21
38
0
LINE
5
E066
8
CONSTRUCTION-GEAR
10
142
20
38
11
142
21
34
0
LINE
5
E067
8
CONSTRUCTION-GEAR
10
138
20
-34
11
138
21
-38
0
LINE
5
E068
8
CONSTRUCTION-GEAR
10
138
20
-38
11
142
21
-38
0
LINE
5
E069
8
CONSTRUCTION-GEAR
10
142
20
-38
11
142
21
-34
0
LINE
5
E070
8
CONSTRUCTION-GEAR
10
152
20
34
11
152
21
38
0
LINE
5
E071
8
CONSTRUCTION-GEAR
10
152
20
38
11
156
21
38
0
LINE
5
E072
8
CONSTRUCTION-GEAR
10
156
20
38
11
156
21
34
0
LINE
5
E073
8
CONSTRUCTION-GEAR
10
152
20
-34
11
152
21
-38
0
LINE
5
E074
8
CONSTRUCTION-GEAR
10
152
20
-38
11
156
21
-38
0
LINE
5
E075
8
CONSTRUCTION-GEAR
10
156
20
-38
11
156
21
-34
0
LINE
5
E076
8
CONSTRUCTION-GEAR
10
166
20
34
11
166
21
38
0
LINE
5
E077
8
CONSTRUCTION-GEAR
10
166
20
38
11
170
21
38
0
LINE
5
E078
8
CONSTRUCTION-GEAR
10
170
20
38
11
170
21
34
0
LINE
5
E079
8
CONSTRUCTION-GEAR
10
166
20
-34
11
166
21
-38
0
LINE
5
E080
8
CONSTRUCTION-GEAR
10
166
20
-38
11
170
21
-38
0
LINE
5
E081
8
CONSTRUCTION-GEAR
10
170
20
-38
11
170
21
-34
0
LINE
5
E082
8
CONSTRUCTION-THREAD
10
232
20
18
11
234
21
20
0
LINE
5
E083
8
CONSTRUCTION-THREAD
10
234
20
20
11
236
21
18
0
LINE
5
E084
8
CONSTRUCTION-THREAD
10
232
20
-18
11
234
21
-20
0
LINE
5
E085
8
CONSTRUCTION-THREAD
10
234
20
-20
11
236
21
-18
0
LINE
5
E086
8
CONSTRUCTION-THREAD
10
236
20
18
11
238
21
20
0
LINE
5
E087
8
CONSTRUCTION-THREAD
10
238
20
20
11
240
21
18
0
LINE
5
E088
8
CONSTRUCTION-THREAD
10
236
20
-18
11
238
21
-20
0
LINE
5
E089
8
CONSTRUCTION-THREAD
10
238
20
-20
11
240
21
-18
0
LINE
5
E090
8
CONSTRUCTION-THREAD
10
240
20
18
11
242
21
20
0
LINE
5
E091
8
CONSTRUCTION-THREAD
10
242
20
20
11
244
21
18
0
LINE
5
E092
8
CONSTRUCTION-THREAD
10
240
20
-18
11
242
21
-20
0
LINE
5
E093
8
CONSTRUCTION-THREAD
10
242
20
-20
11
244
21
-18
0
LINE
5
E094
8
CONSTRUCTION-THREAD
10
244
20
18
11
246
21
20
0
LINE
5
E095
8
CONSTRUCTION-THREAD
10
246
20
20
11
248
21
18
0
LINE
5
E096
8
CONSTRUCTION-THREAD
10
244
20
-18
11
246
21
-20
0
LINE
5
E097
8
CONSTRUCTION-THREAD
10
246
20
-20
11
248
21
-18
0
LINE
5
E098
8
CONSTRUCTION-THREAD
10
248
20
18
11
250
21
20
0
LINE
5
E099
8
CONSTRUCTION-THREAD
10
250
20
20
11
252
21
18
0
LINE
5
E100
8
CONSTRUCTION-THREAD
10
248
20
-18
11
250
21
-20
0
LINE
5
E101
8
CONSTRUCTION-THREAD
10
250
20
-20
11
252
21
-18
0
LINE
5
E102
8
CONSTRUCTION-THREAD
10
252
20
18
11
254
21
20
0
LINE
5
E103
8
CONSTRUCTION-THREAD
10
254
20
20
11
256
21
18
0
LINE
5
E104
8
CONSTRUCTION-THREAD
10
252
20
-18
11
254
21
-20
0
LINE
5
E105
8
CONSTRUCTION-THREAD
10
254
20
-20
11
256
21
-18
0
LINE
5
E106
8
CONSTRUCTION-THREAD
10
256
20
18
11
258
21
20
0
LINE
5
E107
8
CONSTRUCTION-THREAD
10
258
20
20
11
260
21
18
0
LINE
5
E108
8
CONSTRUCTION-THREAD
10
256
20
-18
11
258
21
-20
0
LINE
5
E109
8
CONSTRUCTION-THREAD
10
258
20
-20
11
260
21
-18
0
LINE
5
E110
8
CONSTRUCTION-KEYWAY
10
70
20
21
11
70
21
16
0
LINE
5
E111
8
CONSTRUCTION-KEYWAY
10
92
20
25
11
92
21
16
0
LINE
5
E112
8
CONSTRUCTION-KEYWAY
10
70
20
16
11
92
21
16
0
LINE
5
E113
8
CONSTRUCTION-KEYWAY
10
70
20
-21
11
70
21
-16
0
ARC
5
E114
8
CONSTRUCTION-GEAR
10
126
20
0
40
34
50
12
51
38
0
ARC
5
E115
8
CONSTRUCTION-GEAR
10
154
20
0
40
34
50
142
51
168
0
ARC
5
E116
8
CONSTRUCTION-BEARING
10
210
20
0
40
29
50
35
51
145
0
ARC
5
E117
8
CONSTRUCTION-BEARING
10
210
20
0
40
29
50
215
51
325
0
SPLINE
5
E118
8
CONSTRUCTION-GEAR
70
0
71
2
73
3
74
0
40
0
40
0.2
40
0.4
40
0.6
40
0.8
40
1
10
120
20
34
10
132
20
39
10
144
20
34
0
SPLINE
5
E119
8
CONSTRUCTION-GEAR
70
0
71
2
73
3
74
0
40
0
40
0.2
40
0.4
40
0.6
40
0.8
40
1
10
148
20
-34
10
160
20
-39
10
172
20
-34
0
SPLINE
5
E120
8
SECTION-HATCH
70
0
71
2
73
5
74
0
40
0
40
0.142857
40
0.285714
40
0.428571
40
0.571429
40
0.714286
40
0.857143
40
1
10
28
20
12
10
80
20
14
10
140
20
13
10
200
20
14
10
232
20
12
0
HATCH
5
H001
8
SECTION-HATCH
100
AcDbEntity
100
AcDbHatch
10
0
20
0
30
0
210
0
220
0
230
1
2
ANSI31
70
0
71
0
91
2
92
2
72
0
73
1
93
44
10
0
20
24
10
16
20
24
10
18
20
22
10
36
20
22
10
38
20
27
10
58
20
27
10
60
20
21
10
84
20
21
10
86
20
25
10
118
20
25
10
120
20
34
10
166
20
34
10
168
20
29
10
170
20
27
10
172
20
24
10
198
20
24
10
200
20
29
10
226
20
29
10
228
20
22
10
248
20
22
10
250
20
18
10
260
20
18
10
260
20
-18
10
250
20
-18
10
248
20
-22
10
228
20
-22
10
226
20
-29
10
200
20
-29
10
198
20
-24
10
172
20
-24
10
170
20
-27
10
168
20
-29
10
166
20
-34
10
120
20
-34
10
118
20
-25
10
86
20
-25
10
84
20
-21
10
60
20
-21
10
58
20
-27
10
38
20
-27
10
36
20
-22
10
18
20
-22
10
16
20
-24
10
0
20
-24
92
2
72
0
73
1
93
4
10
28
20
12
10
28
20
-12
10
232
20
-12
10
232
20
12
75
0
76
1
52
45
41
1
77
0
78
1
53
45
43
0
44
0
45
0
46
4
79
0
0
HATCH
5
H002
8
SECTION-HATCH
100
AcDbEntity
100
AcDbHatch
10
0
20
0
30
0
210
0
220
0
230
1
2
ANSI31
70
0
71
0
91
1
92
2
72
0
73
1
93
4
10
0
20
-24
10
0
20
24
10
38
20
24
10
38
20
-24
75
0
76
1
52
135
41
1
77
0
78
1
53
135
43
0
44
0
45
0
46
4
79
0
0
DIMENSION
5
D001
8
DIMENSIONS
10
8.5
20
-58
11
8.5
21
-58
13
0
23
0
14
17
24
0
70
0
42
17
1
17
0
DIMENSION
5
D002
8
DIMENSIONS
10
27
20
-63
11
27
21
-63
13
17
23
0
14
37
24
0
70
0
42
20
1
20
0
DIMENSION
5
D003
8
DIMENSIONS
10
48
20
-68
11
48
21
-68
13
37
23
0
14
59
24
0
70
0
42
22
1
22
0
DIMENSION
5
D004
8
DIMENSIONS
10
89
20
-73
11
89
21
-73
13
59
23
0
14
119
24
0
70
0
42
60
1
60
0
DIMENSION
5
D005
8
DIMENSIONS
10
145
20
-78
11
145
21
-78
13
119
23
0
14
171
24
0
70
0
42
52
1
52
0
DIMENSION
5
D006
8
DIMENSIONS
10
185
20
-83
11
185
21
-83
13
171
23
0
14
199
24
0
70
0
42
28
1
28
0
DIMENSION
5
D007
8
DIMENSIONS
10
213
20
-88
11
213
21
-88
13
199
23
0
14
227
24
0
70
0
42
28
1
28
0
DIMENSION
5
D008
8
DIMENSIONS
10
243.5
20
-93
11
243.5
21
-93
13
227
23
0
14
260
24
0
70
0
42
33
1
33
0
DIMENSION
5
D009
8
DIMENSIONS
10
130
20
62
11
130
21
62
13
0
23
0
14
260
24
0
70
0
42
260
1
260
0
DIMENSION
5
D010
8
DIMENSIONS
10
8.5
20
0
11
8.5
21
44
13
8.5
23
0
14
8.5
24
24
70
3
42
48
1
%%C48
15
8.5
25
24
0
DIMENSION
5
D011
8
DIMENSIONS
10
27
20
0
11
27
21
48
13
27
23
0
14
27
24
22
70
3
42
44
1
%%C44
15
27
25
22
0
DIMENSION
5
D012
8
DIMENSIONS
10
48
20
0
11
48
21
52
13
48
23
0
14
48
24
21
70
3
42
42
1
%%C42
15
48
25
21
0
DIMENSION
5
D013
8
DIMENSIONS
10
89
20
0
11
89
21
56
13
89
23
0
14
89
24
34
70
3
42
68
1
%%C68
15
89
25
34
0
DIMENSION
5
D014
8
DIMENSIONS
10
185
20
0
11
185
21
60
13
185
23
0
14
185
24
29
70
3
42
58
1
%%C58
15
185
25
29
0
DIMENSION
5
D015
8
DIMENSIONS
10
243.5
20
0
11
243.5
21
64
13
243.5
23
0
14
243.5
24
18
70
3
42
36
1
%%C36
15
243.5
25
18
0
DIMENSION
5
D016
8
DIMENSIONS
10
84
20
0
11
92
21
43
13
84
23
21
14
84
24
0
70
2
42
30
1
30°
15
104
25
0
16
84
26
20
0
DIMENSION
5
D017
8
SURFACE-TEXTURE
10
28
20
42
11
28
21
42
13
38
23
22
14
38
24
27
70
0
42
0.8
1
Ra 0.8
0
DIMENSION
5
D018
8
SURFACE-TEXTURE
10
213
20
42
11
213
21
42
13
213
23
24
14
213
24
29
70
0
42
1.6
1
Ra 1.6
0
DIMENSION
5
D019
8
GD&T
10
145
20
34
11
145
21
-46
13
145
23
34
14
145
24
-34
70
3
42
0.01
1
%%C0.01 | A | B
15
145
25
-34
0
DIMENSION
5
D020
8
GD&T
10
213
20
29
11
213
21
-46
13
213
23
29
14
213
24
-29
70
3
42
0.015
1
%%C0.015 | A-B
15
213
25
-29
0
ENDSEC
0
EOF
